<svg version="1.2" xmlns="http://www.w3.org/2000/svg" viewBox="0 0 204 46" width="204" height="46"><style>.a{fill:#06f}.b{fill:#666}</style><path class="a" d="m8.6 27h-7.8v-15.7q0-4.2 2-6.9 2.4-3.1 6.6-3.1 4.3 0 7.2 2.3 2.8 2.2 2.8 6.1l0.1 1q0 3.8-2.1 6.1-2.5 2.7-7.2 2.7-0.1-0.1-0.3-0.1-0.2 0-0.3 0v-6.9q1.3 0 1.9-0.6 0.6-0.6 0.6-1.5 0-0.8-0.4-1.3-0.4-0.5-1.3-0.5-0.9 0-1.4 0.6-0.4 0.5-0.4 2.1zm20.6 0h-7.8v-16q0-3.9 2.5-6.7 2.7-3 7.1-3 3.7 0 6.4 2.3 3.3 2.7 3.3 7.6v15.8h-7.9v-7.7h-2.4v-6.4h2.4v-2.4q0-0.9-0.5-1.4-0.5-0.5-1.3-0.5-0.8 0-1.3 0.5-0.5 0.5-0.5 1.4zm22.8 0h-7.9v-16.1q0-4.7 2.8-7.2 2.5-2.4 6.6-2.4 4.4 0 7 2.5 2.2 2.3 2.2 5.5 0 1.5-0.7 2.8-0.6 1.3-1.8 2.1 2.9 0.9 2.9 4.8v8h-7.9v-6.6q0-1.4-0.5-1.8-0.5-0.4-1.6-0.4v-6.1q1.2 0 1.8-0.5 0.6-0.6 0.6-1.4 0-0.8-0.5-1.3-0.5-0.6-1.3-0.6-1.1 0-1.4 0.8-0.3 0.7-0.3 2.2zm22 0h-7.9v-16q0-3.9 2.5-6.7 2.7-3 7.1-3 3.8 0 6.5 2.2 3.2 2.7 3.2 7.7v15.8h-7.9v-7.8h-2.4v-6.4h2.4v-2.3q0-0.9-0.5-1.4-0.5-0.5-1.3-0.5-0.7 0-1.2 0.5-0.5 0.5-0.5 1.4zm21.9 0h-7.5l1.6-19.5q0-3.4 1.4-4.9 1.2-1.3 3.9-1.3 2.7 0 3.9 1 1 0.8 1.4 2.5l2.2 8.5 1.9-7.7q0.7-2.9 2.2-3.7 1-0.6 3.4-0.6 2.2 0 3.5 1 1.7 1.4 1.7 4.4l1.7 20.3h-7.6l-0.9-15.1-3.2 13q-0.2 1-1 1.6-0.8 0.5-1.8 0.5-0.9 0-1.7-0.4-0.7-0.5-0.9-1.4l-3.3-13.3zm32 0h-7.9v-16q0-3.9 2.6-6.7 2.7-3 7-3 3.8 0 6.5 2.3 3.3 2.7 3.3 7.6v15.8h-7.9v-7.7h-2.4v-6.4h2.4v-2.4q0-0.9-0.5-1.4-0.5-0.5-1.4-0.5-0.7 0-1.2 0.5-0.5 0.5-0.5 1.4zm22.7 0h-7.8v-16.1q0-4.7 2.8-7.2 2.5-2.4 6.6-2.4 4.4 0 6.9 2.5 2.3 2.3 2.3 5.5 0 1.5-0.7 2.9-0.6 1.3-1.8 2 2.9 0.9 2.9 4.8v8h-7.9v-6.6q0-1.4-0.5-1.8-0.5-0.4-1.7-0.4v-6.1q1.3 0 1.9-0.5 0.6-0.6 0.6-1.4 0-0.7-0.5-1.3-0.5-0.6-1.3-0.6-1.1 0-1.4 0.8-0.4 0.8-0.4 2.2zm21 0h-7.7v-7.2h5.8q0.9 0 1.3-0.3 0.5-0.2 0.5-0.7 0-0.4-0.3-0.8-0.2-0.5-0.9-1.1-1.6-1.4-3.2-2.8-1.6-1.5-2.3-2.6-0.8-1.5-0.8-3 0-3.8 2.9-5.5 2.1-1.2 4.9-1.2h7.8v7h-5.2q-1.7 0-1.8 0.9 0.1 0.6 0.8 1.1 4.3 3.2 4.9 3.8 2.3 2.3 2.3 4.9l0.1 0.8q0 3.3-3 5.1-2.4 1.6-6.1 1.6zm19.3 0h-7.9v-25.2h7.9v8.7h3.7v-8.7h7.9v25.2h-7.9v-9.9h-3.7z"/><path class="b" d="m94.1 38.5q0 0.9-0.5 1.4-0.4 0.6-1.1 0.9-0.7 0.3-1.7 0.3-0.6 0-1 0-0.5-0.1-0.9-0.2-0.4-0.1-0.7-0.2v-1q0.5 0.2 1.2 0.3 0.7 0.2 1.4 0.2 0.7 0 1.2-0.2 0.5-0.2 0.7-0.5 0.3-0.4 0.3-0.9 0-0.5-0.2-0.8-0.2-0.3-0.7-0.6-0.5-0.2-1.4-0.5-0.5-0.2-1-0.5-0.4-0.2-0.7-0.6-0.4-0.3-0.5-0.7-0.2-0.4-0.2-0.9 0-0.8 0.4-1.3 0.4-0.5 1.1-0.8 0.6-0.3 1.5-0.3 0.7 0 1.4 0.1 0.6 0.2 1.1 0.4l-0.3 0.9q-0.5-0.2-1.1-0.3-0.5-0.2-1.1-0.2-0.6 0-1 0.2-0.4 0.2-0.7 0.5-0.2 0.3-0.2 0.8 0 0.4 0.2 0.8 0.2 0.3 0.7 0.6 0.4 0.2 1.2 0.5 0.8 0.3 1.4 0.6 0.6 0.3 0.9 0.8 0.3 0.5 0.3 1.2zm7.7-1q0 0.9-0.2 1.5-0.3 0.7-0.7 1.2-0.4 0.4-1 0.7-0.6 0.2-1.3 0.2-0.7 0-1.3-0.2-0.6-0.3-1-0.7-0.4-0.5-0.7-1.2-0.2-0.6-0.2-1.5 0-1.1 0.4-1.9 0.4-0.8 1.1-1.3 0.7-0.4 1.7-0.4 1 0 1.7 0.4 0.7 0.5 1.1 1.3 0.4 0.8 0.4 1.9zm-5.3 0q0 0.8 0.2 1.5 0.2 0.6 0.7 0.9 0.5 0.4 1.2 0.4 0.7 0 1.2-0.4 0.5-0.3 0.7-0.9 0.2-0.7 0.2-1.5 0-0.8-0.2-1.4-0.2-0.6-0.7-1-0.5-0.3-1.2-0.3-1.1 0-1.6 0.7-0.5 0.7-0.5 2zm8.2-6.4v9.9h-1.1v-9.9zm6.9 2.9h1.1v7h-0.9l-0.1-1h-0.1q-0.2 0.4-0.6 0.6-0.3 0.3-0.7 0.4-0.5 0.1-0.9 0.1-0.9 0-1.4-0.2-0.6-0.3-0.9-0.9-0.2-0.5-0.2-1.4v-4.6h1v4.5q0 0.9 0.4 1.3 0.4 0.5 1.2 0.5 0.8 0 1.2-0.3 0.5-0.3 0.7-0.9 0.2-0.6 0.2-1.4zm5.6 6.2q0.2 0 0.5 0 0.3-0.1 0.4-0.1v0.8q-0.2 0.1-0.5 0.1-0.3 0.1-0.6 0.1-0.6 0-1-0.2-0.5-0.2-0.7-0.7-0.3-0.4-0.3-1.2v-4.2h-1v-0.5l1-0.4 0.4-1.5h0.6v1.6h2.1v0.8h-2.1v4.1q0 0.7 0.3 1 0.3 0.3 0.9 0.3zm2.3-6.2h1.1v7h-1.1zm0.6-2.6q0.2 0 0.4 0.1 0.2 0.2 0.2 0.6 0 0.3-0.2 0.5-0.2 0.1-0.4 0.1-0.3 0-0.5-0.1-0.2-0.2-0.2-0.5 0-0.4 0.2-0.6 0.2-0.1 0.5-0.1zm8.7 6q0 0.9-0.2 1.6-0.2 0.6-0.6 1.1-0.5 0.5-1.1 0.7-0.6 0.2-1.3 0.2-0.7 0-1.3-0.2-0.6-0.2-1-0.7-0.4-0.5-0.6-1.1-0.3-0.7-0.3-1.6 0-1.1 0.4-1.9 0.4-0.8 1.1-1.2 0.7-0.5 1.7-0.5 1 0 1.7 0.5 0.7 0.4 1.1 1.2 0.4 0.8 0.4 1.9zm-5.3 0q0 0.9 0.2 1.5 0.3 0.6 0.7 0.9 0.5 0.4 1.2 0.4 0.7 0 1.2-0.4 0.5-0.3 0.7-0.9 0.2-0.6 0.2-1.5 0-0.8-0.2-1.4-0.2-0.6-0.7-0.9-0.4-0.4-1.2-0.4-1.1 0-1.6 0.7-0.5 0.8-0.5 2zm10.4-3.6q1.3 0 1.9 0.6 0.6 0.6 0.6 2v4.5h-1v-4.4q0-0.9-0.4-1.3-0.4-0.5-1.2-0.5-1.2 0-1.6 0.7-0.5 0.6-0.5 1.9v3.6h-1.1v-6.9h0.9l0.1 1h0.1q0.2-0.4 0.6-0.7 0.3-0.2 0.7-0.3 0.5-0.2 0.9-0.2zm9.2 5.2q0 0.7-0.3 1.1-0.4 0.5-1 0.7-0.6 0.2-1.4 0.2-0.8 0-1.3-0.1-0.5-0.1-0.9-0.3v-1q0.4 0.2 1 0.4 0.6 0.2 1.2 0.2 0.9 0 1.3-0.3 0.4-0.3 0.4-0.8 0-0.3-0.2-0.5-0.1-0.2-0.5-0.4-0.4-0.2-1.1-0.5-0.6-0.2-1.1-0.5-0.5-0.2-0.8-0.6-0.2-0.4-0.2-0.9 0-0.9 0.7-1.4 0.7-0.5 1.9-0.5 0.6 0 1.1 0.2 0.6 0.1 1.1 0.3l-0.4 0.8q-0.4-0.1-0.9-0.3-0.5-0.1-1-0.1-0.7 0-1.1 0.2-0.4 0.3-0.4 0.7 0 0.3 0.2 0.5 0.1 0.2 0.5 0.4 0.4 0.2 1.1 0.5 0.6 0.2 1.1 0.5 0.5 0.2 0.8 0.6 0.2 0.3 0.2 0.9zm6.8 1.9l-2.8-6.9h1.1l1.6 4q0.1 0.4 0.2 0.7 0.1 0.3 0.2 0.6 0.1 0.3 0.1 0.6h0.1q0.1-0.3 0.2-0.8 0.2-0.6 0.4-1.1l1.5-4h1.1l-3 7.9q-0.3 0.7-0.6 1.2-0.3 0.4-0.8 0.7-0.4 0.2-1.1 0.2-0.3 0-0.5 0-0.2 0-0.4-0.1v-0.8q0.1 0 0.3 0 0.2 0.1 0.4 0.1 0.4 0 0.7-0.2 0.3-0.1 0.5-0.4 0.2-0.3 0.4-0.7zm10.8-3.5q0 0.9-0.2 1.5-0.2 0.7-0.6 1.2-0.5 0.4-1.1 0.7-0.6 0.2-1.3 0.2-0.7 0-1.3-0.2-0.6-0.3-1-0.7-0.4-0.5-0.6-1.2-0.3-0.6-0.3-1.5 0-1.1 0.4-1.9 0.4-0.8 1.1-1.3 0.7-0.4 1.7-0.4 1 0 1.7 0.4 0.7 0.5 1.1 1.3 0.4 0.8 0.4 1.9zm-5.3 0q0 0.8 0.2 1.5 0.3 0.6 0.7 0.9 0.5 0.3 1.2 0.3 0.7 0 1.2-0.3 0.5-0.3 0.7-0.9 0.2-0.7 0.2-1.5 0-0.8-0.2-1.4-0.2-0.6-0.7-1-0.4-0.3-1.2-0.3-1.1 0-1.6 0.7-0.5 0.7-0.5 2zm11.8-3.5h1.1v7h-0.9l-0.1-1h-0.1q-0.2 0.4-0.6 0.6-0.3 0.3-0.7 0.4-0.4 0.1-0.9 0.1-0.9 0-1.4-0.2-0.6-0.3-0.9-0.9-0.2-0.5-0.2-1.4v-4.6h1v4.5q0 0.9 0.4 1.3 0.4 0.4 1.2 0.4 0.8 0 1.3-0.2 0.4-0.3 0.6-0.9 0.2-0.6 0.2-1.4zm6.5-0.1q0.2 0 0.4 0 0.2 0 0.4 0.1l-0.1 0.9q-0.2 0-0.4 0-0.2-0.1-0.4-0.1-0.4 0-0.8 0.2-0.4 0.2-0.6 0.5-0.3 0.3-0.5 0.7-0.1 0.5-0.1 1v3.8h-1.1v-7h0.9l0.1 1.3q0.3-0.4 0.6-0.7 0.3-0.3 0.7-0.5 0.4-0.2 0.9-0.2zm12.4 7h-1.2l-1.3-4q-0.1-0.3-0.1-0.5-0.1-0.3-0.2-0.5 0-0.2-0.1-0.4 0-0.2-0.1-0.4 0 0.2-0.1 0.4 0 0.2-0.1 0.4 0 0.2-0.1 0.5-0.1 0.3-0.2 0.5l-1.3 4h-1.1l-2-6.9h1.1l1 3.8q0.1 0.4 0.2 0.8 0.1 0.4 0.2 0.7 0.1 0.3 0.1 0.5 0.1-0.1 0.1-0.3 0.1-0.3 0.1-0.5 0.1-0.3 0.2-0.5 0-0.3 0.1-0.5l1.3-4h1.1l1.3 4q0.1 0.3 0.1 0.6 0.1 0.4 0.2 0.7 0.1 0.3 0.1 0.5h0.1q0-0.2 0.1-0.5 0-0.3 0.1-0.7 0.1-0.4 0.2-0.8l1-3.8h1.1zm5.8-7.1q1.2 0 1.8 0.6 0.6 0.5 0.6 1.8v4.7h-0.7l-0.2-1h-0.1q-0.3 0.4-0.6 0.6-0.3 0.3-0.7 0.4-0.4 0.1-1 0.1-0.7 0-1.2-0.2-0.5-0.2-0.7-0.7-0.3-0.4-0.3-1.1 0-1 0.8-1.6 0.8-0.6 2.5-0.6l1.2-0.1v-0.4q0-0.9-0.4-1.3-0.4-0.3-1.1-0.3-0.5 0-1 0.1-0.5 0.2-0.9 0.4l-0.4-0.8q0.5-0.2 1.1-0.4 0.6-0.2 1.3-0.2zm1.4 4.3v-0.6h-1.1q-1.3 0.1-1.8 0.4-0.5 0.4-0.5 1.1 0 0.6 0.3 0.9 0.4 0.3 1 0.3 0.9 0 1.5-0.5 0.6-0.6 0.6-1.6zm4.9 2.8l-2.8-7h1.2l1.5 4.1q0.1 0.3 0.2 0.7 0.1 0.3 0.2 0.6 0.1 0.3 0.2 0.6 0.1-0.3 0.3-0.9 0.1-0.5 0.3-1l1.5-4.1h1.1l-3 8q-0.2 0.7-0.6 1.1-0.3 0.5-0.7 0.8-0.5 0.2-1.1 0.2-0.3 0-0.6 0-0.2 0-0.4-0.1v-0.8q0.2 0 0.4 0 0.2 0.1 0.4 0.1 0.4 0 0.7-0.2 0.3-0.1 0.5-0.4 0.2-0.3 0.3-0.7z"/></svg>