<svg width="204" height="46" viewBox="0 0 204 46" fill="none" xmlns="http://www.w3.org/2000/svg">
<path d="M8.5998 27H0.799805V11.3C0.799805 8.49999 1.46647 6.19999 2.7998 4.39999C4.3998 2.33332 6.5998 1.29999 9.3998 1.29999C12.2665 1.29999 14.6665 2.06665 16.5998 3.59999C18.4665 5.06665 19.3998 7.09999 19.3998 9.69999L19.4998 10.7C19.4998 13.2333 18.7998 15.2667 17.3998 16.8C15.7331 18.6 13.3331 19.5 10.1998 19.5C10.1331 19.4333 10.0331 19.4 9.8998 19.4C9.76647 19.4 9.66647 19.4 9.5998 19.4V12.5C10.4665 12.5 11.0998 12.3 11.4998 11.9C11.8998 11.5 12.0998 11 12.0998 10.4C12.0998 9.86665 11.9665 9.43332 11.6998 9.09999C11.4331 8.76665 10.9998 8.59999 10.3998 8.59999C9.7998 8.59999 9.33314 8.79999 8.9998 9.19999C8.73314 9.53332 8.5998 10.2333 8.5998 11.3V27ZM29.1998 27H21.3998V11C21.3998 8.39999 22.2331 6.16665 23.8998 4.29999C25.6998 2.29999 28.0665 1.29999 30.9998 1.29999C33.4665 1.29999 35.5998 2.06665 37.3998 3.59999C39.5998 5.39999 40.6998 7.93332 40.6998 11.2V27H32.7998V19.3H30.3998V12.9H32.7998V10.5C32.7998 9.89999 32.6331 9.43332 32.2998 9.09999C31.9665 8.76665 31.5331 8.59999 30.9998 8.59999C30.4665 8.59999 30.0331 8.76665 29.6998 9.09999C29.3665 9.43332 29.1998 9.89999 29.1998 10.5V27ZM51.9998 27H44.0998V10.9C44.0998 7.76665 45.0331 5.36665 46.8998 3.69999C48.5665 2.09999 50.7665 1.29999 53.4998 1.29999C56.4331 1.29999 58.7665 2.13332 60.4998 3.79999C61.9665 5.33332 62.6998 7.16665 62.6998 9.29999C62.6998 10.3 62.4665 11.2333 61.9998 12.1C61.5998 12.9667 60.9998 13.6667 60.1998 14.2C62.1331 14.8 63.0998 16.4 63.0998 19V27H55.1998V20.4C55.1998 19.4667 55.0331 18.8667 54.6998 18.6C54.3665 18.3333 53.8331 18.2 53.0998 18.2V12.1C53.8998 12.1 54.4998 11.9333 54.8998 11.6C55.2998 11.2 55.4998 10.7333 55.4998 10.2C55.4998 9.66665 55.3331 9.23332 54.9998 8.89999C54.6665 8.49999 54.2331 8.29999 53.6998 8.29999C52.9665 8.29999 52.4998 8.56665 52.2998 9.09999C52.0998 9.56665 51.9998 10.3 51.9998 11.3V27ZM73.9998 27H66.0998V11C66.0998 8.39999 66.9331 6.16665 68.5998 4.29999C70.3998 2.29999 72.7665 1.29999 75.6998 1.29999C78.2331 1.29999 80.3998 2.03332 82.1998 3.49999C84.3331 5.29999 85.3998 7.86665 85.3998 11.2V27H77.4998V19.2H75.0998V12.8H77.4998V10.5C77.4998 9.89999 77.3331 9.43332 76.9998 9.09999C76.6665 8.76665 76.2331 8.59999 75.6998 8.59999C75.2331 8.59999 74.8331 8.76665 74.4998 9.09999C74.1665 9.43332 73.9998 9.89999 73.9998 10.5V27ZM95.8998 27H88.3998L89.9998 7.49999C89.9998 5.23332 90.4665 3.59999 91.3998 2.59999C92.1998 1.73332 93.4998 1.29999 95.2998 1.29999C97.0998 1.29999 98.3998 1.63332 99.1998 2.29999C99.8665 2.83332 100.333 3.66665 100.6 4.79999L102.8 13.3L104.7 5.59999C105.166 3.66665 105.9 2.43332 106.9 1.89999C107.566 1.49999 108.7 1.29999 110.3 1.29999C111.766 1.29999 112.933 1.63332 113.8 2.29999C114.933 3.23332 115.5 4.69999 115.5 6.69999L117.2 27H109.6L108.7 11.9L105.5 24.9C105.366 25.5667 105.033 26.1 104.5 26.5C103.966 26.8333 103.366 27 102.7 27C102.1 27 101.533 26.8667 101 26.6C100.533 26.2667 100.233 25.8 100.1 25.2L96.7998 11.9L95.8998 27ZM127.9 27H120V11C120 8.39999 120.866 6.16665 122.6 4.29999C124.4 2.29999 126.733 1.29999 129.6 1.29999C132.133 1.29999 134.3 2.06665 136.1 3.59999C138.3 5.39999 139.4 7.93332 139.4 11.2V27H131.5V19.3H129.1V12.9H131.5V10.5C131.5 9.89999 131.333 9.43332 131 9.09999C130.666 8.76665 130.2 8.59999 129.6 8.59999C129.133 8.59999 128.733 8.76665 128.4 9.09999C128.066 9.43332 127.9 9.89999 127.9 10.5V27ZM150.6 27H142.8V10.9C142.8 7.76665 143.733 5.36665 145.6 3.69999C147.266 2.09999 149.466 1.29999 152.2 1.29999C155.133 1.29999 157.433 2.13332 159.1 3.79999C160.633 5.33332 161.4 7.16665 161.4 9.29999C161.4 10.3 161.166 11.2667 160.7 12.2C160.3 13.0667 159.7 13.7333 158.9 14.2C160.833 14.8 161.8 16.4 161.8 19V27H153.9V20.4C153.9 19.4667 153.733 18.8667 153.4 18.6C153.066 18.3333 152.5 18.2 151.7 18.2V12.1C152.566 12.1 153.2 11.9333 153.6 11.6C154 11.2 154.2 10.7333 154.2 10.2C154.2 9.73332 154.033 9.29999 153.7 8.89999C153.366 8.49999 152.933 8.29999 152.4 8.29999C151.666 8.29999 151.2 8.56665 151 9.09999C150.733 9.63332 150.6 10.3667 150.6 11.3V27ZM171.6 27H163.9V19.8H169.7C170.3 19.8 170.733 19.7 171 19.5C171.333 19.3667 171.5 19.1333 171.5 18.8C171.5 18.5333 171.4 18.2667 171.2 18C171.066 17.6667 170.766 17.3 170.3 16.9C169.233 15.9667 168.166 15.0333 167.1 14.1C166.033 13.1 165.266 12.2333 164.8 11.5C164.266 10.5 164 9.49999 164 8.49999C164 5.96665 164.966 4.13332 166.9 2.99999C168.3 2.19999 169.933 1.79999 171.8 1.79999H179.6V8.79999H174.4C173.266 8.79999 172.666 9.09999 172.6 9.69999C172.666 10.1 172.933 10.4667 173.4 10.8C176.266 12.9333 177.9 14.2 178.3 14.6C179.833 16.1333 180.6 17.7667 180.6 19.5L180.7 20.3C180.7 22.5 179.7 24.2 177.7 25.4C176.1 26.4667 174.066 27 171.6 27ZM190.9 27H183V1.79999H190.9V10.5H194.6V1.79999H202.5V27H194.6V17.1H190.9V27Z" fill="white"/>
<path d="M94.1002 38.5C94.1002 39.1 93.9335 39.5667 93.6002 39.9C93.3335 40.3 92.9669 40.6 92.5002 40.8C92.0335 41 91.4669 41.1 90.8002 41.1C90.4002 41.1 90.0669 41.1 89.8002 41.1C89.4669 41.0333 89.1669 40.9667 88.9002 40.9C88.6335 40.8333 88.4002 40.7667 88.2002 40.7V39.7C88.5335 39.8333 88.9335 39.9333 89.4002 40C89.8669 40.1333 90.3335 40.2 90.8002 40.2C91.2669 40.2 91.6669 40.1333 92.0002 40C92.3335 39.8667 92.5669 39.7 92.7002 39.5C92.9002 39.2333 93.0002 38.9333 93.0002 38.6C93.0002 38.2667 92.9335 38 92.8002 37.8C92.6669 37.6 92.4335 37.4 92.1002 37.2C91.7669 37.0667 91.3002 36.9 90.7002 36.7C90.3669 36.5667 90.0335 36.4 89.7002 36.2C89.4335 36.0667 89.2002 35.8667 89.0002 35.6C88.7335 35.4 88.5669 35.1667 88.5002 34.9C88.3669 34.6333 88.3002 34.3333 88.3002 34C88.3002 33.4667 88.4335 33.0333 88.7002 32.7C88.9669 32.3667 89.3335 32.1 89.8002 31.9C90.2002 31.7 90.7002 31.6 91.3002 31.6C91.7669 31.6 92.2335 31.6333 92.7002 31.7C93.1002 31.8333 93.4669 31.9667 93.8002 32.1L93.5002 33C93.1669 32.8667 92.8002 32.7667 92.4002 32.7C92.0669 32.5667 91.7002 32.5 91.3002 32.5C90.9002 32.5 90.5669 32.5667 90.3002 32.7C90.0335 32.8333 89.8002 33 89.6002 33.2C89.4669 33.4 89.4002 33.6667 89.4002 34C89.4002 34.2667 89.4669 34.5333 89.6002 34.8C89.7335 35 89.9669 35.2 90.3002 35.4C90.5669 35.5333 90.9669 35.7 91.5002 35.9C92.0335 36.1 92.5002 36.3 92.9002 36.5C93.3002 36.7 93.6002 36.9667 93.8002 37.3C94.0002 37.6333 94.1002 38.0333 94.1002 38.5ZM101.8 37.5C101.8 38.1 101.734 38.6 101.6 39C101.4 39.4667 101.167 39.8667 100.9 40.2C100.634 40.4667 100.3 40.7 99.9002 40.9C99.5002 41.0333 99.0669 41.1 98.6002 41.1C98.1335 41.1 97.7002 41.0333 97.3002 40.9C96.9002 40.7 96.5669 40.4667 96.3002 40.2C96.0335 39.8667 95.8002 39.4667 95.6002 39C95.4669 38.6 95.4002 38.1 95.4002 37.5C95.4002 36.7667 95.5335 36.1333 95.8002 35.6C96.0669 35.0667 96.4335 34.6333 96.9002 34.3C97.3669 34.0333 97.9335 33.9 98.6002 33.9C99.2669 33.9 99.8335 34.0333 100.3 34.3C100.767 34.6333 101.134 35.0667 101.4 35.6C101.667 36.1333 101.8 36.7667 101.8 37.5ZM96.5002 37.5C96.5002 38.0333 96.5669 38.5333 96.7002 39C96.8335 39.4 97.0669 39.7 97.4002 39.9C97.7335 40.1667 98.1335 40.3 98.6002 40.3C99.0669 40.3 99.4669 40.1667 99.8002 39.9C100.134 39.7 100.367 39.4 100.5 39C100.634 38.5333 100.7 38.0333 100.7 37.5C100.7 36.9667 100.634 36.5 100.5 36.1C100.367 35.7 100.134 35.3667 99.8002 35.1C99.4669 34.9 99.0669 34.8 98.6002 34.8C97.8669 34.8 97.3335 35.0333 97.0002 35.5C96.6669 35.9667 96.5002 36.6333 96.5002 37.5ZM104.7 31.1V41H103.6V31.1H104.7ZM111.6 34H112.7V41H111.8L111.7 40H111.6C111.467 40.2667 111.267 40.4667 111 40.6C110.8 40.8 110.567 40.9333 110.3 41C109.967 41.0667 109.667 41.1 109.4 41.1C108.8 41.1 108.334 41.0333 108 40.9C107.6 40.7 107.3 40.4 107.1 40C106.967 39.6667 106.9 39.2 106.9 38.6V34H107.9V38.5C107.9 39.1 108.034 39.5333 108.3 39.8C108.567 40.1333 108.967 40.3 109.5 40.3C110.034 40.3 110.434 40.2 110.7 40C111.034 39.8 111.267 39.5 111.4 39.1C111.534 38.7 111.6 38.2333 111.6 37.7V34ZM117.2 40.2C117.334 40.2 117.5 40.2 117.7 40.2C117.9 40.1333 118.034 40.1 118.1 40.1V40.9C117.967 40.9667 117.8 41 117.6 41C117.4 41.0667 117.2 41.1 117 41.1C116.6 41.1 116.267 41.0333 116 40.9C115.667 40.7667 115.434 40.5333 115.3 40.2C115.1 39.9333 115 39.5333 115 39V34.8H114V34.3L115 33.9L115.4 32.4H116V34H118.1V34.8H116V38.9C116 39.3667 116.1 39.7 116.3 39.9C116.5 40.1 116.8 40.2 117.2 40.2ZM119.5 34H120.6V41H119.5V34ZM120.1 31.4C120.234 31.4 120.367 31.4333 120.5 31.5C120.634 31.6333 120.7 31.8333 120.7 32.1C120.7 32.3 120.634 32.4667 120.5 32.6C120.367 32.6667 120.234 32.7 120.1 32.7C119.9 32.7 119.734 32.6667 119.6 32.6C119.467 32.4667 119.4 32.3 119.4 32.1C119.4 31.8333 119.467 31.6333 119.6 31.5C119.734 31.4333 119.9 31.4 120.1 31.4ZM128.8 37.4C128.8 38 128.734 38.5333 128.6 39C128.467 39.4 128.267 39.7667 128 40.1C127.667 40.4333 127.3 40.6667 126.9 40.8C126.5 40.9333 126.067 41 125.6 41C125.134 41 124.7 40.9333 124.3 40.8C123.9 40.6667 123.567 40.4333 123.3 40.1C123.034 39.7667 122.834 39.4 122.7 39C122.5 38.5333 122.4 38 122.4 37.4C122.4 36.6667 122.534 36.0333 122.8 35.5C123.067 34.9667 123.434 34.5667 123.9 34.3C124.367 33.9667 124.934 33.8 125.6 33.8C126.267 33.8 126.834 33.9667 127.3 34.3C127.767 34.5667 128.134 34.9667 128.4 35.5C128.667 36.0333 128.8 36.6667 128.8 37.4ZM123.5 37.4C123.5 38 123.567 38.5 123.7 38.9C123.9 39.3 124.134 39.6 124.4 39.8C124.734 40.0667 125.134 40.2 125.6 40.2C126.067 40.2 126.467 40.0667 126.8 39.8C127.134 39.6 127.367 39.3 127.5 38.9C127.634 38.5 127.7 38 127.7 37.4C127.7 36.8667 127.634 36.4 127.5 36C127.367 35.6 127.134 35.3 126.8 35.1C126.534 34.8333 126.134 34.7 125.6 34.7C124.867 34.7 124.334 34.9333 124 35.4C123.667 35.9333 123.5 36.6 123.5 37.4ZM133.9 33.8C134.767 33.8 135.4 34 135.8 34.4C136.2 34.8 136.4 35.4667 136.4 36.4V40.9H135.4V36.5C135.4 35.9 135.267 35.4667 135 35.2C134.734 34.8667 134.334 34.7 133.8 34.7C133 34.7 132.467 34.9333 132.2 35.4C131.867 35.8 131.7 36.4333 131.7 37.3V40.9H130.6V34H131.5L131.6 35H131.7C131.834 34.7333 132.034 34.5 132.3 34.3C132.5 34.1667 132.734 34.0667 133 34C133.334 33.8667 133.634 33.8 133.9 33.8ZM143.1 39C143.1 39.4667 143 39.8333 142.8 40.1C142.534 40.4333 142.2 40.6667 141.8 40.8C141.4 40.9333 140.934 41 140.4 41C139.867 41 139.434 40.9667 139.1 40.9C138.767 40.8333 138.467 40.7333 138.2 40.6V39.6C138.467 39.7333 138.8 39.8667 139.2 40C139.6 40.1333 140 40.2 140.4 40.2C141 40.2 141.434 40.1 141.7 39.9C141.967 39.7 142.1 39.4333 142.1 39.1C142.1 38.9 142.034 38.7333 141.9 38.6C141.834 38.4667 141.667 38.3333 141.4 38.2C141.134 38.0667 140.767 37.9 140.3 37.7C139.9 37.5667 139.534 37.4 139.2 37.2C138.867 37.0667 138.6 36.8667 138.4 36.6C138.267 36.3333 138.2 36.0333 138.2 35.7C138.2 35.1 138.434 34.6333 138.9 34.3C139.367 33.9667 140 33.8 140.8 33.8C141.2 33.8 141.567 33.8667 141.9 34C142.3 34.0667 142.667 34.1667 143 34.3L142.6 35.1C142.334 35.0333 142.034 34.9333 141.7 34.8C141.367 34.7333 141.034 34.7 140.7 34.7C140.234 34.7 139.867 34.7667 139.6 34.9C139.334 35.1 139.2 35.3333 139.2 35.6C139.2 35.8 139.267 35.9667 139.4 36.1C139.467 36.2333 139.634 36.3667 139.9 36.5C140.167 36.6333 140.534 36.8 141 37C141.4 37.1333 141.767 37.3 142.1 37.5C142.434 37.6333 142.7 37.8333 142.9 38.1C143.034 38.3 143.1 38.6 143.1 39ZM149.9 40.9L147.1 34H148.2L149.8 38C149.867 38.2667 149.934 38.5 150 38.7C150.067 38.9 150.134 39.1 150.2 39.3C150.267 39.5 150.3 39.7 150.3 39.9H150.4C150.467 39.7 150.534 39.4333 150.6 39.1C150.734 38.7 150.867 38.3333 151 38L152.5 34H153.6L150.6 41.9C150.4 42.3667 150.2 42.7667 150 43.1C149.8 43.3667 149.534 43.6 149.2 43.8C148.934 43.9333 148.567 44 148.1 44C147.9 44 147.734 44 147.6 44C147.467 44 147.334 43.9667 147.2 43.9V43.1C147.267 43.1 147.367 43.1 147.5 43.1C147.634 43.1667 147.767 43.2 147.9 43.2C148.167 43.2 148.4 43.1333 148.6 43C148.8 42.9333 148.967 42.8 149.1 42.6C149.234 42.4 149.367 42.1667 149.5 41.9L149.9 40.9ZM160.7 37.4C160.7 38 160.634 38.5 160.5 38.9C160.367 39.3667 160.167 39.7667 159.9 40.1C159.567 40.3667 159.2 40.6 158.8 40.8C158.4 40.9333 157.967 41 157.5 41C157.034 41 156.6 40.9333 156.2 40.8C155.8 40.6 155.467 40.3667 155.2 40.1C154.934 39.7667 154.734 39.3667 154.6 38.9C154.4 38.5 154.3 38 154.3 37.4C154.3 36.6667 154.434 36.0333 154.7 35.5C154.967 34.9667 155.334 34.5333 155.8 34.2C156.267 33.9333 156.834 33.8 157.5 33.8C158.167 33.8 158.734 33.9333 159.2 34.2C159.667 34.5333 160.034 34.9667 160.3 35.5C160.567 36.0333 160.7 36.6667 160.7 37.4ZM155.4 37.4C155.4 37.9333 155.467 38.4333 155.6 38.9C155.8 39.3 156.034 39.6 156.3 39.8C156.634 40 157.034 40.1 157.5 40.1C157.967 40.1 158.367 40 158.7 39.8C159.034 39.6 159.267 39.3 159.4 38.9C159.534 38.4333 159.6 37.9333 159.6 37.4C159.6 36.8667 159.534 36.4 159.4 36C159.267 35.6 159.034 35.2667 158.7 35C158.434 34.8 158.034 34.7 157.5 34.7C156.767 34.7 156.234 34.9333 155.9 35.4C155.567 35.8667 155.4 36.5333 155.4 37.4ZM167.2 33.9H168.3V40.9H167.4L167.3 39.9H167.2C167.067 40.1667 166.867 40.3667 166.6 40.5C166.4 40.7 166.167 40.8333 165.9 40.9C165.634 40.9667 165.334 41 165 41C164.4 41 163.934 40.9333 163.6 40.8C163.2 40.6 162.9 40.3 162.7 39.9C162.567 39.5667 162.5 39.1 162.5 38.5V33.9H163.5V38.4C163.5 39 163.634 39.4333 163.9 39.7C164.167 39.9667 164.567 40.1 165.1 40.1C165.634 40.1 166.067 40.0333 166.4 39.9C166.667 39.7 166.867 39.4 167 39C167.134 38.6 167.2 38.1333 167.2 37.6V33.9ZM173.7 33.8C173.834 33.8 173.967 33.8 174.1 33.8C174.234 33.8 174.367 33.8333 174.5 33.9L174.4 34.8C174.267 34.8 174.134 34.8 174 34.8C173.867 34.7333 173.734 34.7 173.6 34.7C173.334 34.7 173.067 34.7667 172.8 34.9C172.534 35.0333 172.334 35.2 172.2 35.4C172 35.6 171.834 35.8333 171.7 36.1C171.634 36.4333 171.6 36.7667 171.6 37.1V40.9H170.5V33.9H171.4L171.5 35.2C171.7 34.9333 171.9 34.7 172.1 34.5C172.3 34.3 172.534 34.1333 172.8 34C173.067 33.8667 173.367 33.8 173.7 33.8ZM186.1 40.8H184.9L183.6 36.8C183.534 36.6 183.5 36.4333 183.5 36.3C183.434 36.1 183.367 35.9333 183.3 35.8C183.3 35.6667 183.267 35.5333 183.2 35.4C183.2 35.2667 183.167 35.1333 183.1 35C183.1 35.1333 183.067 35.2667 183 35.4C183 35.5333 182.967 35.6667 182.9 35.8C182.9 35.9333 182.867 36.1 182.8 36.3C182.734 36.5 182.667 36.6667 182.6 36.8L181.3 40.8H180.2L178.2 33.9H179.3L180.3 37.7C180.367 37.9667 180.434 38.2333 180.5 38.5C180.567 38.7667 180.634 39 180.7 39.2C180.767 39.4 180.8 39.5667 180.8 39.7C180.867 39.6333 180.9 39.5333 180.9 39.4C180.967 39.2 181 39.0333 181 38.9C181.067 38.7 181.134 38.5333 181.2 38.4C181.2 38.2 181.234 38.0333 181.3 37.9L182.6 33.9H183.7L185 37.9C185.067 38.1 185.1 38.3 185.1 38.5C185.167 38.7667 185.234 39 185.3 39.2C185.367 39.4 185.4 39.5667 185.4 39.7H185.5C185.5 39.5667 185.534 39.4 185.6 39.2C185.6 39 185.634 38.7667 185.7 38.5C185.767 38.2333 185.834 37.9667 185.9 37.7L186.9 33.9H188L186.1 40.8ZM191.9 33.7C192.7 33.7 193.3 33.9 193.7 34.3C194.1 34.6333 194.3 35.2333 194.3 36.1V40.8H193.6L193.4 39.8H193.3C193.1 40.0667 192.9 40.2667 192.7 40.4C192.5 40.6 192.267 40.7333 192 40.8C191.734 40.8667 191.4 40.9 191 40.9C190.534 40.9 190.134 40.8333 189.8 40.7C189.467 40.5667 189.234 40.3333 189.1 40C188.9 39.7333 188.8 39.3667 188.8 38.9C188.8 38.2333 189.067 37.7 189.6 37.3C190.134 36.9 190.967 36.7 192.1 36.7L193.3 36.6V36.2C193.3 35.6 193.167 35.1667 192.9 34.9C192.634 34.7 192.267 34.6 191.8 34.6C191.467 34.6 191.134 34.6333 190.8 34.7C190.467 34.8333 190.167 34.9667 189.9 35.1L189.5 34.3C189.834 34.1667 190.2 34.0333 190.6 33.9C191 33.7667 191.434 33.7 191.9 33.7ZM193.3 38V37.4H192.2C191.334 37.4667 190.734 37.6 190.4 37.8C190.067 38.0667 189.9 38.4333 189.9 38.9C189.9 39.3 190 39.6 190.2 39.8C190.467 40 190.8 40.1 191.2 40.1C191.8 40.1 192.3 39.9333 192.7 39.6C193.1 39.2 193.3 38.6667 193.3 38ZM198.2 40.8L195.4 33.8H196.6L198.1 37.9C198.167 38.1 198.234 38.3333 198.3 38.6C198.367 38.8 198.434 39 198.5 39.2C198.567 39.4 198.634 39.6 198.7 39.8C198.767 39.6 198.867 39.3 199 38.9C199.067 38.5667 199.167 38.2333 199.3 37.9L200.8 33.8H201.9L198.9 41.8C198.767 42.2667 198.567 42.6333 198.3 42.9C198.1 43.2333 197.867 43.5 197.6 43.7C197.267 43.8333 196.9 43.9 196.5 43.9C196.3 43.9 196.1 43.9 195.9 43.9C195.767 43.9 195.634 43.8667 195.5 43.8V43C195.634 43 195.767 43 195.9 43C196.034 43.0667 196.167 43.1 196.3 43.1C196.567 43.1 196.8 43.0333 197 42.9C197.2 42.8333 197.367 42.7 197.5 42.5C197.634 42.3 197.734 42.0667 197.8 41.8L198.2 40.8Z" fill="white"/>
</svg>
